<svg width="628" height="720" viewBox="0 0 628 720" fill="none" xmlns="http://www.w3.org/2000/svg">
<g clip-path="url(#clip0_2_2722)">
<rect width="628" height="720" fill="#03045E"/>
<rect width="628" height="459" fill="url(#paint0_linear_2_2722)"/>
<path d="M190.569 697H180.647L169.824 720H179.745L190.569 697Z" fill="#023E8A"/>
<path d="M159 697H168.922L179.745 720H169.824L159 697Z" fill="#0077B6"/>
<path d="M77.7449 697H67.8233L56.9998 720H66.9213L77.7449 697Z" fill="#023E8A"/>
<path d="M46.1763 697H56.0978L66.9214 720H56.9998L46.1763 697Z" fill="#0077B6"/>
<path d="M306.745 697H296.823L286 720H295.921L306.745 697Z" fill="#023E8A"/>
<path d="M275.176 697H285.098L295.921 720H286L275.176 697Z" fill="#0077B6"/>
<path d="M480.275 697H470.353L459.53 720H469.451L480.275 697Z" fill="#023E8A"/>
<path d="M448.706 697H458.628L469.451 720H459.53L448.706 697Z" fill="#0077B6"/>
<path d="M596.569 697H586.647L575.824 720H585.745L596.569 697Z" fill="#023E8A"/>
<path d="M565 697H574.922L585.745 720H575.824L565 697Z" fill="#0077B6"/>
<path d="M17.0388 697H7.11725L-3.70628 720H6.21529L17.0388 697Z" fill="#023E8A"/>
<path d="M-14.5298 697H-4.60822L6.21531 720H-3.70626L-14.5298 697Z" fill="#0077B6"/>
<path d="M246.039 697H236.117L225.294 720H235.215L246.039 697Z" fill="#023E8A"/>
<path d="M214.47 697H224.392L235.215 720H225.294L214.47 697Z" fill="#0077B6"/>
<path d="M419.569 697H409.647L398.824 720H408.745L419.569 697Z" fill="#023E8A"/>
<path d="M388 697H397.922L408.745 720H398.824L388 697Z" fill="#0077B6"/>
<path d="M133.215 697H123.294L112.47 720H122.392L133.215 697Z" fill="#023E8A"/>
<path d="M101.646 697H111.568L122.392 720H112.47L101.646 697Z" fill="#0077B6"/>
<path d="M362.215 697H352.294L341.47 720H351.392L362.215 697Z" fill="#023E8A"/>
<path d="M330.646 697H340.568L351.392 720H341.47L330.646 697Z" fill="#0077B6"/>
<path d="M535.745 697H525.823L515 720H524.921L535.745 697Z" fill="#023E8A"/>
<path d="M504.176 697H514.098L524.921 720H515L504.176 697Z" fill="#0077B6"/>
<path d="M620.47 697H630.392L641.215 720H631.294L620.47 697Z" fill="#0077B6"/>
<path d="M218.078 720H208.157L197.333 697H207.255L218.078 720Z" fill="#023E8A"/>
<path d="M186.51 720H196.431L207.255 697H197.333L186.51 720Z" fill="#0077B6"/>
<path d="M105.255 720H95.3331L84.5095 697H94.4311L105.255 720Z" fill="#023E8A"/>
<path d="M73.686 720H83.6076L94.4311 697H84.5096L73.686 720Z" fill="#0077B6"/>
<path d="M334.255 720H324.333L313.51 697H323.431L334.255 720Z" fill="#023E8A"/>
<path d="M302.686 720H312.608L323.431 697H313.51L302.686 720Z" fill="#0077B6"/>
<path d="M507.784 720H497.863L487.039 697H496.961L507.784 720Z" fill="#023E8A"/>
<path d="M476.216 720H486.137L496.961 697H487.039L476.216 720Z" fill="#0077B6"/>
<path d="M624.078 720H614.157L603.333 697H613.255L624.078 720Z" fill="#023E8A"/>
<path d="M592.51 720H602.431L613.255 697H603.333L592.51 720Z" fill="#0077B6"/>
<path d="M46.3528 720H36.4312L25.6077 697H35.5293L46.3528 720Z" fill="#023E8A"/>
<path d="M14.7842 720H24.7057L35.5293 697H25.6077L14.7842 720Z" fill="#0077B6"/>
<path d="M275.353 720H265.431L254.608 697H264.529L275.353 720Z" fill="#023E8A"/>
<path d="M243.784 720H253.706L264.529 697H254.608L243.784 720Z" fill="#0077B6"/>
<path d="M448.883 720H438.961L428.137 697H438.059L448.883 720Z" fill="#023E8A"/>
<path d="M417.314 720H427.236L438.059 697H428.137L417.314 720Z" fill="#0077B6"/>
<path d="M162.529 720H152.607L141.784 697H151.706L162.529 720Z" fill="#023E8A"/>
<path d="M130.96 720H140.882L151.706 697H141.784L130.96 720Z" fill="#0077B6"/>
<path d="M391.529 720H381.607L370.784 697H380.706L391.529 720Z" fill="#023E8A"/>
<path d="M359.96 720H369.882L380.706 697H370.784L359.96 720Z" fill="#0077B6"/>
<path d="M565.059 720H555.137L544.314 697H554.235L565.059 720Z" fill="#023E8A"/>
<path d="M533.49 720H543.412L554.235 697H544.314L533.49 720Z" fill="#0077B6"/>
<path d="M190.569 561H180.647L169.824 584H179.745L190.569 561Z" fill="#023E8A"/>
<path d="M159 561H168.922L179.745 584H169.824L159 561Z" fill="#0077B6"/>
<path d="M77.7449 561H67.8233L56.9998 584H66.9213L77.7449 561Z" fill="#023E8A"/>
<path d="M46.1763 561H56.0978L66.9214 584H56.9998L46.1763 561Z" fill="#0077B6"/>
<path d="M306.745 561H296.823L286 584H295.921L306.745 561Z" fill="#023E8A"/>
<path d="M275.176 561H285.098L295.921 584H286L275.176 561Z" fill="#0077B6"/>
<path d="M480.275 561H470.353L459.53 584H469.451L480.275 561Z" fill="#023E8A"/>
<path d="M448.706 561H458.628L469.451 584H459.53L448.706 561Z" fill="#0077B6"/>
<path d="M596.569 561H586.647L575.824 584H585.745L596.569 561Z" fill="#023E8A"/>
<path d="M565 561H574.922L585.745 584H575.824L565 561Z" fill="#0077B6"/>
<path d="M17.0388 561H7.11725L-3.70628 584H6.21529L17.0388 561Z" fill="#023E8A"/>
<path d="M-14.5298 561H-4.60822L6.21531 584H-3.70626L-14.5298 561Z" fill="#0077B6"/>
<path d="M246.039 561H236.117L225.294 584H235.215L246.039 561Z" fill="#023E8A"/>
<path d="M214.47 561H224.392L235.215 584H225.294L214.47 561Z" fill="#0077B6"/>
<path d="M419.569 561H409.647L398.824 584H408.745L419.569 561Z" fill="#023E8A"/>
<path d="M388 561H397.922L408.745 584H398.824L388 561Z" fill="#0077B6"/>
<path d="M133.215 561H123.294L112.47 584H122.392L133.215 561Z" fill="#023E8A"/>
<path d="M101.646 561H111.568L122.392 584H112.47L101.646 561Z" fill="#0077B6"/>
<path d="M362.215 561H352.294L341.47 584H351.392L362.215 561Z" fill="#023E8A"/>
<path d="M330.646 561H340.568L351.392 584H341.47L330.646 561Z" fill="#0077B6"/>
<path d="M535.745 561H525.823L515 584H524.921L535.745 561Z" fill="#023E8A"/>
<path d="M504.176 561H514.098L524.921 584H515L504.176 561Z" fill="#0077B6"/>
<path d="M620.47 561H630.392L641.215 584H631.294L620.47 561Z" fill="#0077B6"/>
<path d="M218.078 584H208.157L197.333 561H207.255L218.078 584Z" fill="#023E8A"/>
<path d="M186.51 584H196.431L207.255 561H197.333L186.51 584Z" fill="#0077B6"/>
<path d="M105.255 584H95.3331L84.5095 561H94.4311L105.255 584Z" fill="#023E8A"/>
<path d="M73.686 584H83.6076L94.4311 561H84.5096L73.686 584Z" fill="#0077B6"/>
<path d="M334.255 584H324.333L313.51 561H323.431L334.255 584Z" fill="#023E8A"/>
<path d="M302.686 584H312.608L323.431 561H313.51L302.686 584Z" fill="#0077B6"/>
<path d="M507.784 584H497.863L487.039 561H496.961L507.784 584Z" fill="#023E8A"/>
<path d="M476.216 584H486.137L496.961 561H487.039L476.216 584Z" fill="#0077B6"/>
<path d="M624.078 584H614.157L603.333 561H613.255L624.078 584Z" fill="#023E8A"/>
<path d="M592.51 584H602.431L613.255 561H603.333L592.51 584Z" fill="#0077B6"/>
<path d="M46.3528 584H36.4312L25.6077 561H35.5293L46.3528 584Z" fill="#023E8A"/>
<path d="M14.7842 584H24.7057L35.5293 561H25.6077L14.7842 584Z" fill="#0077B6"/>
<path d="M275.353 584H265.431L254.608 561H264.529L275.353 584Z" fill="#023E8A"/>
<path d="M243.784 584H253.706L264.529 561H254.608L243.784 584Z" fill="#0077B6"/>
<path d="M448.883 584H438.961L428.137 561H438.059L448.883 584Z" fill="#023E8A"/>
<path d="M417.314 584H427.236L438.059 561H428.137L417.314 584Z" fill="#0077B6"/>
<path d="M162.529 584H152.607L141.784 561H151.706L162.529 584Z" fill="#023E8A"/>
<path d="M130.96 584H140.882L151.706 561H141.784L130.96 584Z" fill="#0077B6"/>
<path d="M391.529 584H381.607L370.784 561H380.706L391.529 584Z" fill="#023E8A"/>
<path d="M359.96 584H369.882L380.706 561H370.784L359.96 584Z" fill="#0077B6"/>
<path d="M565.059 584H555.137L544.314 561H554.235L565.059 584Z" fill="#023E8A"/>
<path d="M533.49 584H543.412L554.235 561H544.314L533.49 584Z" fill="#0077B6"/>
<path d="M190.569 629H180.647L169.824 652H179.745L190.569 629Z" fill="#023E8A"/>
<path d="M159 629H168.922L179.745 652H169.824L159 629Z" fill="#0077B6"/>
<path d="M77.7449 629H67.8233L56.9998 652H66.9213L77.7449 629Z" fill="#023E8A"/>
<path d="M46.1763 629H56.0978L66.9214 652H56.9998L46.1763 629Z" fill="#0077B6"/>
<path d="M306.745 629H296.823L286 652H295.921L306.745 629Z" fill="#023E8A"/>
<path d="M275.176 629H285.098L295.921 652H286L275.176 629Z" fill="#0077B6"/>
<path d="M480.275 629H470.353L459.53 652H469.451L480.275 629Z" fill="#023E8A"/>
<path d="M448.706 629H458.628L469.451 652H459.53L448.706 629Z" fill="#0077B6"/>
<path d="M596.569 629H586.647L575.824 652H585.745L596.569 629Z" fill="#023E8A"/>
<path d="M565 629H574.922L585.745 652H575.824L565 629Z" fill="#0077B6"/>
<path d="M17.0388 629H7.11725L-3.70628 652H6.21529L17.0388 629Z" fill="#023E8A"/>
<path d="M-14.5298 629H-4.60822L6.21531 652H-3.70626L-14.5298 629Z" fill="#0077B6"/>
<path d="M246.039 629H236.117L225.294 652H235.215L246.039 629Z" fill="#023E8A"/>
<path d="M214.47 629H224.392L235.215 652H225.294L214.47 629Z" fill="#0077B6"/>
<path d="M419.569 629H409.647L398.824 652H408.745L419.569 629Z" fill="#023E8A"/>
<path d="M388 629H397.922L408.745 652H398.824L388 629Z" fill="#0077B6"/>
<path d="M133.215 629H123.294L112.47 652H122.392L133.215 629Z" fill="#023E8A"/>
<path d="M101.646 629H111.568L122.392 652H112.47L101.646 629Z" fill="#0077B6"/>
<path d="M362.215 629H352.294L341.47 652H351.392L362.215 629Z" fill="#023E8A"/>
<path d="M330.646 629H340.568L351.392 652H341.47L330.646 629Z" fill="#0077B6"/>
<path d="M535.745 629H525.823L515 652H524.921L535.745 629Z" fill="#023E8A"/>
<path d="M504.176 629H514.098L524.921 652H515L504.176 629Z" fill="#0077B6"/>
<path d="M620.47 629H630.392L641.215 652H631.294L620.47 629Z" fill="#0077B6"/>
<path d="M218.078 652H208.157L197.333 629H207.255L218.078 652Z" fill="#023E8A"/>
<path d="M186.51 652H196.431L207.255 629H197.333L186.51 652Z" fill="#0077B6"/>
<path d="M105.255 652H95.3331L84.5095 629H94.4311L105.255 652Z" fill="#023E8A"/>
<path d="M73.686 652H83.6076L94.4311 629H84.5096L73.686 652Z" fill="#0077B6"/>
<path d="M334.255 652H324.333L313.51 629H323.431L334.255 652Z" fill="#023E8A"/>
<path d="M302.686 652H312.608L323.431 629H313.51L302.686 652Z" fill="#0077B6"/>
<path d="M507.784 652H497.863L487.039 629H496.961L507.784 652Z" fill="#023E8A"/>
<path d="M476.216 652H486.137L496.961 629H487.039L476.216 652Z" fill="#0077B6"/>
<path d="M624.078 652H614.157L603.333 629H613.255L624.078 652Z" fill="#023E8A"/>
<path d="M592.51 652H602.431L613.255 629H603.333L592.51 652Z" fill="#0077B6"/>
<path d="M46.3528 652H36.4312L25.6077 629H35.5293L46.3528 652Z" fill="#023E8A"/>
<path d="M14.7842 652H24.7057L35.5293 629H25.6077L14.7842 652Z" fill="#0077B6"/>
<path d="M275.353 652H265.431L254.608 629H264.529L275.353 652Z" fill="#023E8A"/>
<path d="M243.784 652H253.706L264.529 629H254.608L243.784 652Z" fill="#0077B6"/>
<path d="M448.883 652H438.961L428.137 629H438.059L448.883 652Z" fill="#023E8A"/>
<path d="M417.314 652H427.236L438.059 629H428.137L417.314 652Z" fill="#0077B6"/>
<path d="M162.529 652H152.607L141.784 629H151.706L162.529 652Z" fill="#023E8A"/>
<path d="M130.96 652H140.882L151.706 629H141.784L130.96 652Z" fill="#0077B6"/>
<path d="M391.529 652H381.607L370.784 629H380.706L391.529 652Z" fill="#023E8A"/>
<path d="M359.96 652H369.882L380.706 629H370.784L359.96 652Z" fill="#0077B6"/>
<path d="M565.059 652H555.137L544.314 629H554.235L565.059 652Z" fill="#023E8A"/>
<path d="M533.49 652H543.412L554.235 629H544.314L533.49 652Z" fill="#0077B6"/>
<path d="M190.569 493H180.647L169.824 516H179.745L190.569 493Z" fill="#023E8A"/>
<path d="M159 493H168.922L179.745 516H169.824L159 493Z" fill="#0077B6"/>
<path d="M77.7449 493H67.8233L56.9998 516H66.9213L77.7449 493Z" fill="#023E8A"/>
<path d="M46.1763 493H56.0978L66.9214 516H56.9998L46.1763 493Z" fill="#0077B6"/>
<path d="M306.745 493H296.823L286 516H295.921L306.745 493Z" fill="#023E8A"/>
<path d="M275.176 493H285.098L295.921 516H286L275.176 493Z" fill="#0077B6"/>
<path d="M480.275 493H470.353L459.53 516H469.451L480.275 493Z" fill="#023E8A"/>
<path d="M448.706 493H458.628L469.451 516H459.53L448.706 493Z" fill="#0077B6"/>
<path d="M596.569 493H586.647L575.824 516H585.745L596.569 493Z" fill="#023E8A"/>
<path d="M565 493H574.922L585.745 516H575.824L565 493Z" fill="#0077B6"/>
<path d="M17.0388 493H7.11725L-3.70628 516H6.21529L17.0388 493Z" fill="#023E8A"/>
<path d="M-14.5298 493H-4.60822L6.21531 516H-3.70626L-14.5298 493Z" fill="#0077B6"/>
<path d="M246.039 493H236.117L225.294 516H235.215L246.039 493Z" fill="#023E8A"/>
<path d="M214.47 493H224.392L235.215 516H225.294L214.47 493Z" fill="#0077B6"/>
<path d="M419.569 493H409.647L398.824 516H408.745L419.569 493Z" fill="#023E8A"/>
<path d="M388 493H397.922L408.745 516H398.824L388 493Z" fill="#0077B6"/>
<path d="M133.215 493H123.294L112.47 516H122.392L133.215 493Z" fill="#023E8A"/>
<path d="M101.646 493H111.568L122.392 516H112.47L101.646 493Z" fill="#0077B6"/>
<path d="M362.215 493H352.294L341.47 516H351.392L362.215 493Z" fill="#023E8A"/>
<path d="M330.646 493H340.568L351.392 516H341.47L330.646 493Z" fill="#0077B6"/>
<path d="M535.745 493H525.823L515 516H524.921L535.745 493Z" fill="#023E8A"/>
<path d="M504.176 493H514.098L524.921 516H515L504.176 493Z" fill="#0077B6"/>
<path d="M620.47 493H630.392L641.215 516H631.294L620.47 493Z" fill="#0077B6"/>
<path d="M218.078 516H208.157L197.333 493H207.255L218.078 516Z" fill="#023E8A"/>
<path d="M186.51 516H196.431L207.255 493H197.333L186.51 516Z" fill="#0077B6"/>
<path d="M105.255 516H95.3331L84.5095 493H94.4311L105.255 516Z" fill="#023E8A"/>
<path d="M73.686 516H83.6076L94.4311 493H84.5096L73.686 516Z" fill="#0077B6"/>
<path d="M334.255 516H324.333L313.51 493H323.431L334.255 516Z" fill="#023E8A"/>
<path d="M302.686 516H312.608L323.431 493H313.51L302.686 516Z" fill="#0077B6"/>
<path d="M507.784 516H497.863L487.039 493H496.961L507.784 516Z" fill="#023E8A"/>
<path d="M476.216 516H486.137L496.961 493H487.039L476.216 516Z" fill="#0077B6"/>
<path d="M624.078 516H614.157L603.333 493H613.255L624.078 516Z" fill="#023E8A"/>
<path d="M592.51 516H602.431L613.255 493H603.333L592.51 516Z" fill="#0077B6"/>
<path d="M46.3528 516H36.4312L25.6077 493H35.5293L46.3528 516Z" fill="#023E8A"/>
<path d="M14.7842 516H24.7057L35.5293 493H25.6077L14.7842 516Z" fill="#0077B6"/>
<path d="M275.353 516H265.431L254.608 493H264.529L275.353 516Z" fill="#023E8A"/>
<path d="M243.784 516H253.706L264.529 493H254.608L243.784 516Z" fill="#0077B6"/>
<path d="M448.883 516H438.961L428.137 493H438.059L448.883 516Z" fill="#023E8A"/>
<path d="M417.314 516H427.236L438.059 493H428.137L417.314 516Z" fill="#0077B6"/>
<path d="M162.529 516H152.607L141.784 493H151.706L162.529 516Z" fill="#023E8A"/>
<path d="M130.96 516H140.882L151.706 493H141.784L130.96 516Z" fill="#0077B6"/>
<path d="M391.529 516H381.607L370.784 493H380.706L391.529 516Z" fill="#023E8A"/>
<path d="M359.96 516H369.882L380.706 493H370.784L359.96 516Z" fill="#0077B6"/>
<path d="M565.059 516H555.137L544.314 493H554.235L565.059 516Z" fill="#023E8A"/>
<path d="M533.49 516H543.412L554.235 493H544.314L533.49 516Z" fill="#0077B6"/>
<path d="M207.569 663H197.647L186.824 686H196.745L207.569 663Z" fill="#023E8A"/>
<path d="M176 663H185.922L196.745 686H186.824L176 663Z" fill="#0077B6"/>
<path d="M94.7449 663H84.8233L73.9998 686H83.9213L94.7449 663Z" fill="#023E8A"/>
<path d="M63.1763 663H73.0978L83.9214 686H73.9998L63.1763 663Z" fill="#0077B6"/>
<path d="M323.745 663H313.823L303 686H312.921L323.745 663Z" fill="#023E8A"/>
<path d="M292.176 663H302.098L312.921 686H303L292.176 663Z" fill="#0077B6"/>
<path d="M497.275 663H487.353L476.53 686H486.451L497.275 663Z" fill="#023E8A"/>
<path d="M465.706 663H475.628L486.451 686H476.53L465.706 663Z" fill="#0077B6"/>
<path d="M613.569 663H603.647L592.824 686H602.745L613.569 663Z" fill="#023E8A"/>
<path d="M582 663H591.922L602.745 686H592.824L582 663Z" fill="#0077B6"/>
<path d="M34.0388 663H24.1172L13.2937 686H23.2153L34.0388 663Z" fill="#023E8A"/>
<path d="M2.47021 663H12.3918L23.2153 686H13.2937L2.47021 663Z" fill="#0077B6"/>
<path d="M263.039 663H253.117L242.294 686H252.215L263.039 663Z" fill="#023E8A"/>
<path d="M231.47 663H241.392L252.215 686H242.294L231.47 663Z" fill="#0077B6"/>
<path d="M436.569 663H426.647L415.824 686H425.745L436.569 663Z" fill="#023E8A"/>
<path d="M405 663H414.922L425.745 686H415.824L405 663Z" fill="#0077B6"/>
<path d="M150.215 663H140.294L129.47 686H139.392L150.215 663Z" fill="#023E8A"/>
<path d="M118.646 663H128.568L139.392 686H129.47L118.646 663Z" fill="#0077B6"/>
<path d="M379.215 663H369.294L358.47 686H368.392L379.215 663Z" fill="#023E8A"/>
<path d="M347.646 663H357.568L368.392 686H358.47L347.646 663Z" fill="#0077B6"/>
<path d="M552.745 663H542.823L532 686H541.921L552.745 663Z" fill="#023E8A"/>
<path d="M521.176 663H531.098L541.921 686H532L521.176 663Z" fill="#0077B6"/>
<path d="M6.07837 686H-3.8432L-14.6667 663H-4.74516L6.07837 686Z" fill="#023E8A"/>
<path d="M235.078 686H225.157L214.333 663H224.255L235.078 686Z" fill="#023E8A"/>
<path d="M203.51 686H213.431L224.255 663H214.333L203.51 686Z" fill="#0077B6"/>
<path d="M122.255 686H112.333L101.51 663H111.431L122.255 686Z" fill="#023E8A"/>
<path d="M90.686 686H100.608L111.431 663H101.51L90.686 686Z" fill="#0077B6"/>
<path d="M351.255 686H341.333L330.51 663H340.431L351.255 686Z" fill="#023E8A"/>
<path d="M319.686 686H329.608L340.431 663H330.51L319.686 686Z" fill="#0077B6"/>
<path d="M524.784 686H514.863L504.039 663H513.961L524.784 686Z" fill="#023E8A"/>
<path d="M493.216 686H503.137L513.961 663H504.039L493.216 686Z" fill="#0077B6"/>
<path d="M641.078 686H631.157L620.333 663H630.255L641.078 686Z" fill="#023E8A"/>
<path d="M609.51 686H619.431L630.255 663H620.333L609.51 686Z" fill="#0077B6"/>
<path d="M63.3528 686H53.4312L42.6077 663H52.5293L63.3528 686Z" fill="#023E8A"/>
<path d="M31.7842 686H41.7057L52.5293 663H42.6077L31.7842 686Z" fill="#0077B6"/>
<path d="M292.353 686H282.431L271.608 663H281.529L292.353 686Z" fill="#023E8A"/>
<path d="M260.784 686H270.706L281.529 663H271.608L260.784 686Z" fill="#0077B6"/>
<path d="M465.883 686H455.961L445.137 663H455.059L465.883 686Z" fill="#023E8A"/>
<path d="M434.314 686H444.236L455.059 663H445.137L434.314 686Z" fill="#0077B6"/>
<path d="M179.529 686H169.607L158.784 663H168.706L179.529 686Z" fill="#023E8A"/>
<path d="M147.96 686H157.882L168.706 663H158.784L147.96 686Z" fill="#0077B6"/>
<path d="M408.529 686H398.607L387.784 663H397.706L408.529 686Z" fill="#023E8A"/>
<path d="M376.96 686H386.882L397.706 663H387.784L376.96 686Z" fill="#0077B6"/>
<path d="M582.059 686H572.137L561.314 663H571.235L582.059 686Z" fill="#023E8A"/>
<path d="M550.49 686H560.412L571.235 663H561.314L550.49 686Z" fill="#0077B6"/>
<path d="M207.569 527H197.647L186.824 550H196.745L207.569 527Z" fill="#023E8A"/>
<path d="M176 527H185.922L196.745 550H186.824L176 527Z" fill="#0077B6"/>
<path d="M94.7449 527H84.8233L73.9998 550H83.9213L94.7449 527Z" fill="#023E8A"/>
<path d="M63.1763 527H73.0978L83.9214 550H73.9998L63.1763 527Z" fill="#0077B6"/>
<path d="M323.745 527H313.823L303 550H312.921L323.745 527Z" fill="#023E8A"/>
<path d="M292.176 527H302.098L312.921 550H303L292.176 527Z" fill="#0077B6"/>
<path d="M497.275 527H487.353L476.53 550H486.451L497.275 527Z" fill="#023E8A"/>
<path d="M465.706 527H475.628L486.451 550H476.53L465.706 527Z" fill="#0077B6"/>
<path d="M613.569 527H603.647L592.824 550H602.745L613.569 527Z" fill="#023E8A"/>
<path d="M582 527H591.922L602.745 550H592.824L582 527Z" fill="#0077B6"/>
<path d="M34.0388 527H24.1172L13.2937 550H23.2153L34.0388 527Z" fill="#023E8A"/>
<path d="M2.47021 527H12.3918L23.2153 550H13.2937L2.47021 527Z" fill="#0077B6"/>
<path d="M263.039 527H253.117L242.294 550H252.215L263.039 527Z" fill="#023E8A"/>
<path d="M231.47 527H241.392L252.215 550H242.294L231.47 527Z" fill="#0077B6"/>
<path d="M436.569 527H426.647L415.824 550H425.745L436.569 527Z" fill="#023E8A"/>
<path d="M405 527H414.922L425.745 550H415.824L405 527Z" fill="#0077B6"/>
<path d="M150.215 527H140.294L129.47 550H139.392L150.215 527Z" fill="#023E8A"/>
<path d="M118.646 527H128.568L139.392 550H129.47L118.646 527Z" fill="#0077B6"/>
<path d="M379.215 527H369.294L358.47 550H368.392L379.215 527Z" fill="#023E8A"/>
<path d="M347.646 527H357.568L368.392 550H358.47L347.646 527Z" fill="#0077B6"/>
<path d="M552.745 527H542.823L532 550H541.921L552.745 527Z" fill="#023E8A"/>
<path d="M521.176 527H531.098L541.921 550H532L521.176 527Z" fill="#0077B6"/>
<path d="M6.07837 550H-3.8432L-14.6667 527H-4.74516L6.07837 550Z" fill="#023E8A"/>
<path d="M235.078 550H225.157L214.333 527H224.255L235.078 550Z" fill="#023E8A"/>
<path d="M203.51 550H213.431L224.255 527H214.333L203.51 550Z" fill="#0077B6"/>
<path d="M122.255 550H112.333L101.51 527H111.431L122.255 550Z" fill="#023E8A"/>
<path d="M90.686 550H100.608L111.431 527H101.51L90.686 550Z" fill="#0077B6"/>
<path d="M351.255 550H341.333L330.51 527H340.431L351.255 550Z" fill="#023E8A"/>
<path d="M319.686 550H329.608L340.431 527H330.51L319.686 550Z" fill="#0077B6"/>
<path d="M524.784 550H514.863L504.039 527H513.961L524.784 550Z" fill="#023E8A"/>
<path d="M493.216 550H503.137L513.961 527H504.039L493.216 550Z" fill="#0077B6"/>
<path d="M641.078 550H631.157L620.333 527H630.255L641.078 550Z" fill="#023E8A"/>
<path d="M609.51 550H619.431L630.255 527H620.333L609.51 550Z" fill="#0077B6"/>
<path d="M63.3528 550H53.4312L42.6077 527H52.5293L63.3528 550Z" fill="#023E8A"/>
<path d="M31.7842 550H41.7057L52.5293 527H42.6077L31.7842 550Z" fill="#0077B6"/>
<path d="M292.353 550H282.431L271.608 527H281.529L292.353 550Z" fill="#023E8A"/>
<path d="M260.784 550H270.706L281.529 527H271.608L260.784 550Z" fill="#0077B6"/>
<path d="M465.883 550H455.961L445.137 527H455.059L465.883 550Z" fill="#023E8A"/>
<path d="M434.314 550H444.236L455.059 527H445.137L434.314 550Z" fill="#0077B6"/>
<path d="M179.529 550H169.607L158.784 527H168.706L179.529 550Z" fill="#023E8A"/>
<path d="M147.96 550H157.882L168.706 527H158.784L147.96 550Z" fill="#0077B6"/>
<path d="M408.529 550H398.607L387.784 527H397.706L408.529 550Z" fill="#023E8A"/>
<path d="M376.96 550H386.882L397.706 527H387.784L376.96 550Z" fill="#0077B6"/>
<path d="M582.059 550H572.137L561.314 527H571.235L582.059 550Z" fill="#023E8A"/>
<path d="M550.49 550H560.412L571.235 527H561.314L550.49 550Z" fill="#0077B6"/>
<path d="M207.569 595H197.647L186.824 618H196.745L207.569 595Z" fill="#023E8A"/>
<path d="M176 595H185.922L196.745 618H186.824L176 595Z" fill="#0077B6"/>
<path d="M94.7449 595H84.8233L73.9998 618H83.9213L94.7449 595Z" fill="#023E8A"/>
<path d="M63.1763 595H73.0978L83.9214 618H73.9998L63.1763 595Z" fill="#0077B6"/>
<path d="M323.745 595H313.823L303 618H312.921L323.745 595Z" fill="#023E8A"/>
<path d="M292.176 595H302.098L312.921 618H303L292.176 595Z" fill="#0077B6"/>
<path d="M497.275 595H487.353L476.53 618H486.451L497.275 595Z" fill="#023E8A"/>
<path d="M465.706 595H475.628L486.451 618H476.53L465.706 595Z" fill="#0077B6"/>
<path d="M613.569 595H603.647L592.824 618H602.745L613.569 595Z" fill="#023E8A"/>
<path d="M582 595H591.922L602.745 618H592.824L582 595Z" fill="#0077B6"/>
<path d="M34.0388 595H24.1172L13.2937 618H23.2153L34.0388 595Z" fill="#023E8A"/>
<path d="M2.47021 595H12.3918L23.2153 618H13.2937L2.47021 595Z" fill="#0077B6"/>
<path d="M263.039 595H253.117L242.294 618H252.215L263.039 595Z" fill="#023E8A"/>
<path d="M231.47 595H241.392L252.215 618H242.294L231.47 595Z" fill="#0077B6"/>
<path d="M436.569 595H426.647L415.824 618H425.745L436.569 595Z" fill="#023E8A"/>
<path d="M405 595H414.922L425.745 618H415.824L405 595Z" fill="#0077B6"/>
<path d="M150.215 595H140.294L129.47 618H139.392L150.215 595Z" fill="#023E8A"/>
<path d="M118.646 595H128.568L139.392 618H129.47L118.646 595Z" fill="#0077B6"/>
<path d="M379.215 595H369.294L358.47 618H368.392L379.215 595Z" fill="#023E8A"/>
<path d="M347.646 595H357.568L368.392 618H358.47L347.646 595Z" fill="#0077B6"/>
<path d="M552.745 595H542.823L532 618H541.921L552.745 595Z" fill="#023E8A"/>
<path d="M521.176 595H531.098L541.921 618H532L521.176 595Z" fill="#0077B6"/>
<path d="M6.07837 618H-3.8432L-14.6667 595H-4.74516L6.07837 618Z" fill="#023E8A"/>
<path d="M235.078 618H225.157L214.333 595H224.255L235.078 618Z" fill="#023E8A"/>
<path d="M203.51 618H213.431L224.255 595H214.333L203.51 618Z" fill="#0077B6"/>
<path d="M122.255 618H112.333L101.51 595H111.431L122.255 618Z" fill="#023E8A"/>
<path d="M90.686 618H100.608L111.431 595H101.51L90.686 618Z" fill="#0077B6"/>
<path d="M351.255 618H341.333L330.51 595H340.431L351.255 618Z" fill="#023E8A"/>
<path d="M319.686 618H329.608L340.431 595H330.51L319.686 618Z" fill="#0077B6"/>
<path d="M524.784 618H514.863L504.039 595H513.961L524.784 618Z" fill="#023E8A"/>
<path d="M493.216 618H503.137L513.961 595H504.039L493.216 618Z" fill="#0077B6"/>
<path d="M641.078 618H631.157L620.333 595H630.255L641.078 618Z" fill="#023E8A"/>
<path d="M609.51 618H619.431L630.255 595H620.333L609.51 618Z" fill="#0077B6"/>
<path d="M63.3528 618H53.4312L42.6077 595H52.5293L63.3528 618Z" fill="#023E8A"/>
<path d="M31.7842 618H41.7057L52.5293 595H42.6077L31.7842 618Z" fill="#0077B6"/>
<path d="M292.353 618H282.431L271.608 595H281.529L292.353 618Z" fill="#023E8A"/>
<path d="M260.784 618H270.706L281.529 595H271.608L260.784 618Z" fill="#0077B6"/>
<path d="M465.883 618H455.961L445.137 595H455.059L465.883 618Z" fill="#023E8A"/>
<path d="M434.314 618H444.236L455.059 595H445.137L434.314 618Z" fill="#0077B6"/>
<path d="M179.529 618H169.607L158.784 595H168.706L179.529 618Z" fill="#023E8A"/>
<path d="M147.96 618H157.882L168.706 595H158.784L147.96 618Z" fill="#0077B6"/>
<path d="M408.529 618H398.607L387.784 595H397.706L408.529 618Z" fill="#023E8A"/>
<path d="M376.96 618H386.882L397.706 595H387.784L376.96 618Z" fill="#0077B6"/>
<path d="M582.059 618H572.137L561.314 595H571.235L582.059 618Z" fill="#023E8A"/>
<path d="M550.49 618H560.412L571.235 595H561.314L550.49 618Z" fill="#0077B6"/>
<path d="M207.569 459H197.647L186.824 482H196.745L207.569 459Z" fill="#023E8A"/>
<path d="M176 459H185.922L196.745 482H186.824L176 459Z" fill="#0077B6"/>
<path d="M94.7449 459H84.8233L73.9998 482H83.9213L94.7449 459Z" fill="#023E8A"/>
<path d="M63.1763 459H73.0978L83.9214 482H73.9998L63.1763 459Z" fill="#0077B6"/>
<path d="M323.745 459H313.823L303 482H312.921L323.745 459Z" fill="#023E8A"/>
<path d="M292.176 459H302.098L312.921 482H303L292.176 459Z" fill="#0077B6"/>
<path d="M497.275 459H487.353L476.53 482H486.451L497.275 459Z" fill="#023E8A"/>
<path d="M465.706 459H475.628L486.451 482H476.53L465.706 459Z" fill="#0077B6"/>
<path d="M613.569 459H603.647L592.824 482H602.745L613.569 459Z" fill="#023E8A"/>
<path d="M582 459H591.922L602.745 482H592.824L582 459Z" fill="#0077B6"/>
<path d="M34.0388 459H24.1172L13.2937 482H23.2153L34.0388 459Z" fill="#023E8A"/>
<path d="M2.47021 459H12.3918L23.2153 482H13.2937L2.47021 459Z" fill="#0077B6"/>
<path d="M263.039 459H253.117L242.294 482H252.215L263.039 459Z" fill="#023E8A"/>
<path d="M231.47 459H241.392L252.215 482H242.294L231.47 459Z" fill="#0077B6"/>
<path d="M436.569 459H426.647L415.824 482H425.745L436.569 459Z" fill="#023E8A"/>
<path d="M405 459H414.922L425.745 482H415.824L405 459Z" fill="#0077B6"/>
<path d="M150.215 459H140.294L129.47 482H139.392L150.215 459Z" fill="#023E8A"/>
<path d="M118.646 459H128.568L139.392 482H129.47L118.646 459Z" fill="#0077B6"/>
<path d="M379.215 459H369.294L358.47 482H368.392L379.215 459Z" fill="#023E8A"/>
<path d="M347.646 459H357.568L368.392 482H358.47L347.646 459Z" fill="#0077B6"/>
<path d="M552.745 459H542.823L532 482H541.921L552.745 459Z" fill="#023E8A"/>
<path d="M521.176 459H531.098L541.921 482H532L521.176 459Z" fill="#0077B6"/>
<path d="M6.07837 482H-3.8432L-14.6667 459H-4.74516L6.07837 482Z" fill="#023E8A"/>
<path d="M235.078 482H225.157L214.333 459H224.255L235.078 482Z" fill="#023E8A"/>
<path d="M203.51 482H213.431L224.255 459H214.333L203.51 482Z" fill="#0077B6"/>
<path d="M122.255 482H112.333L101.51 459H111.431L122.255 482Z" fill="#023E8A"/>
<path d="M90.686 482H100.608L111.431 459H101.51L90.686 482Z" fill="#0077B6"/>
<path d="M351.255 482H341.333L330.51 459H340.431L351.255 482Z" fill="#023E8A"/>
<path d="M319.686 482H329.608L340.431 459H330.51L319.686 482Z" fill="#0077B6"/>
<path d="M524.784 482H514.863L504.039 459H513.961L524.784 482Z" fill="#023E8A"/>
<path d="M493.216 482H503.137L513.961 459H504.039L493.216 482Z" fill="#0077B6"/>
<path d="M641.078 482H631.157L620.333 459H630.255L641.078 482Z" fill="#023E8A"/>
<path d="M609.51 482H619.431L630.255 459H620.333L609.51 482Z" fill="#0077B6"/>
<path d="M63.3528 482H53.4312L42.6077 459H52.5293L63.3528 482Z" fill="#023E8A"/>
<path d="M31.7842 482H41.7057L52.5293 459H42.6077L31.7842 482Z" fill="#0077B6"/>
<path d="M292.353 482H282.431L271.608 459H281.529L292.353 482Z" fill="#023E8A"/>
<path d="M260.784 482H270.706L281.529 459H271.608L260.784 482Z" fill="#0077B6"/>
<path d="M465.883 482H455.961L445.137 459H455.059L465.883 482Z" fill="#023E8A"/>
<path d="M434.314 482H444.236L455.059 459H445.137L434.314 482Z" fill="#0077B6"/>
<path d="M179.529 482H169.607L158.784 459H168.706L179.529 482Z" fill="#023E8A"/>
<path d="M147.96 482H157.882L168.706 459H158.784L147.96 482Z" fill="#0077B6"/>
<path d="M408.529 482H398.607L387.784 459H397.706L408.529 482Z" fill="#023E8A"/>
<path d="M376.96 482H386.882L397.706 459H387.784L376.96 482Z" fill="#0077B6"/>
<path d="M582.059 482H572.137L561.314 459H571.235L582.059 482Z" fill="#023E8A"/>
<path d="M550.49 482H560.412L571.235 459H561.314L550.49 482Z" fill="#0077B6"/>
<rect y="459" width="628" height="349" fill="url(#paint1_linear_2_2722)"/>
<circle cx="570.5" cy="-19.5" r="142" stroke="url(#paint2_linear_2_2722)"/>
<circle cx="617" cy="110" r="110.5" transform="rotate(90 617 110)" stroke="url(#paint3_linear_2_2722)"/>
<path d="M510 152.5C479.9 152.5 455.5 128.1 455.5 98C455.5 67.9005 479.9 43.5 510 43.5C540.1 43.5 564.5 67.9005 564.5 98C564.5 128.1 540.1 152.5 510 152.5Z" stroke="url(#paint4_linear_2_2722)"/>
</g>
<defs>
<linearGradient id="paint0_linear_2_2722" x1="314" y1="-322" x2="314" y2="459" gradientUnits="userSpaceOnUse">
<stop stop-color="#11151C" stop-opacity="0.6"/>
<stop offset="1" stop-color="#11151C" stop-opacity="0"/>
</linearGradient>
<linearGradient id="paint1_linear_2_2722" x1="314" y1="492.614" x2="314" y2="808" gradientUnits="userSpaceOnUse">
<stop stop-color="#03045E"/>
<stop offset="0.260417" stop-color="#03045E" stop-opacity="0.880208"/>
<stop offset="0.546875" stop-color="#03045E" stop-opacity="0.650858"/>
<stop offset="0.838542" stop-color="#03045E" stop-opacity="0"/>
</linearGradient>
<linearGradient id="paint2_linear_2_2722" x1="409.5" y1="-137.5" x2="457.5" y2="86.5" gradientUnits="userSpaceOnUse">
<stop stop-color="#F2FBFD"/>
<stop offset="1" stop-color="#F2FBFD" stop-opacity="0"/>
</linearGradient>
<linearGradient id="paint3_linear_2_2722" x1="617" y1="-1.00001" x2="617" y2="221" gradientUnits="userSpaceOnUse">
<stop stop-color="#0077B6"/>
<stop offset="1" stop-color="#0077B6" stop-opacity="0"/>
</linearGradient>
<linearGradient id="paint4_linear_2_2722" x1="565" y1="98" x2="455" y2="98" gradientUnits="userSpaceOnUse">
<stop stop-color="#F2FBFD" stop-opacity="0.31"/>
<stop offset="1" stop-color="#F2FBFD" stop-opacity="0"/>
</linearGradient>
<clipPath id="clip0_2_2722">
<rect width="628" height="720" fill="white"/>
</clipPath>
</defs>
</svg>
