<svg width="152" height="32" viewBox="0 0 152 32" fill="none" xmlns="http://www.w3.org/2000/svg">
<rect width="32" height="32" rx="8" fill="#00B4D8"/>
<path d="M12.2173 23.2568L9.8652 9H5.60899L8.18512 23.2568H12.2173Z" fill="white"/>
<path d="M19.8311 23.2568L22.1832 9H26.4394L23.8633 23.2568H19.8311Z" fill="white"/>
<path d="M23.8537 23.2568L18.2042 9H13.7976L19.786 23.2568H23.8537Z" fill="white"/>
<path d="M8.33841 23.2568L13.9072 9H18.2509L12.348 23.2568H8.33841Z" fill="white"/>
<path d="M47.4233 22.8438H51.9078L53.9617 15.2159H54.1072L56.1612 22.8438H60.6371L64.0689 9.75284H59.8669L58.1467 18.0795H58.0354L56.0842 9.75284H51.9848L50.0849 18.1392H49.9736L48.2021 9.75284H44L47.4233 22.8438Z" fill="#03045E"/>
<path d="M65.7485 22.8438H69.9334V9.75284H65.7485V22.8438ZM67.8452 8.22728C69.0348 8.22728 69.9933 7.33239 69.9933 6.23296C69.9933 5.13353 69.0348 4.24716 67.8452 4.24716C66.6642 4.24716 65.6971 5.13353 65.6971 6.23296C65.6971 7.33239 66.6642 8.22728 67.8452 8.22728Z" fill="#03045E"/>
<path d="M84.0737 13.75C83.8512 11.1591 81.7202 9.58239 78.16 9.58239C74.5998 9.58239 72.3319 11.125 72.349 13.75C72.3319 15.7614 73.6242 17.0568 76.2515 17.5426L78.5451 17.9773C79.632 18.1903 80.1284 18.5313 80.1455 19.1108C80.1284 19.767 79.3924 20.2017 78.3226 20.2017C77.133 20.2017 76.3285 19.6903 76.1488 18.7358L72.0152 18.8381C72.3148 21.429 74.5484 23.0909 78.3055 23.0909C81.8229 23.0909 84.3818 21.3438 84.3989 18.6506C84.3818 16.7415 83.1152 15.608 80.4964 15.1051L77.9631 14.6278C76.8506 14.4063 76.4911 14.0142 76.4997 13.5114C76.4911 12.8466 77.2699 12.4375 78.237 12.4375C79.341 12.4375 80.1113 13.0256 80.2311 13.8523L84.0737 13.75Z" fill="#03045E"/>
<path d="M92.6041 23.0909C96.053 23.0909 98.3209 21.429 98.8002 18.8551L94.9576 18.7443C94.6324 19.6136 93.7765 20.0824 92.6811 20.0824C91.0721 20.0824 90.0794 19.017 90.0794 17.4148V17.304H98.843V16.2642C98.843 11.9517 96.2071 9.58239 92.4757 9.58239C88.5047 9.58239 85.9543 12.2926 85.9543 16.3494C85.9543 20.5426 88.4705 23.0909 92.6041 23.0909ZM90.0794 14.8835C90.1393 13.5795 91.1748 12.5909 92.5613 12.5909C93.9391 12.5909 94.9319 13.5455 94.949 14.8835H90.0794Z" fill="#03045E"/>
<path d="M112.457 13.75C112.234 11.1591 110.103 9.58239 106.543 9.58239C102.983 9.58239 100.715 11.125 100.732 13.75C100.715 15.7614 102.007 17.0568 104.635 17.5426L106.928 17.9773C108.015 18.1903 108.512 18.5313 108.529 19.1108C108.512 19.767 107.776 20.2017 106.706 20.2017C105.516 20.2017 104.712 19.6903 104.532 18.7358L100.398 18.8381C100.698 21.429 102.932 23.0909 106.689 23.0909C110.206 23.0909 112.765 21.3438 112.782 18.6506C112.765 16.7415 111.498 15.608 108.88 15.1051L106.346 14.6278C105.234 14.4063 104.874 14.0142 104.883 13.5114C104.874 12.8466 105.653 12.4375 106.62 12.4375C107.724 12.4375 108.494 13.0256 108.614 13.8523L112.457 13.75Z" fill="#03045E"/>
<path d="M122.262 9.75284H119.892V6.61648H115.707V9.75284H113.97V12.821H115.707V19.1875C115.681 21.8381 117.41 23.1676 120.363 23.0313C121.372 22.9801 122.1 22.7756 122.502 22.6563L121.869 19.6477C121.689 19.6903 121.27 19.7756 120.953 19.7756C120.277 19.7756 119.892 19.5028 119.892 18.7273V12.821H122.262V9.75284Z" fill="#03045E"/>
<path d="M130.401 23.0909C133.85 23.0909 136.118 21.429 136.597 18.8551L132.755 18.7443C132.43 19.6136 131.574 20.0824 130.478 20.0824C128.869 20.0824 127.877 19.017 127.877 17.4148V17.304H136.64V16.2642C136.64 11.9517 134.004 9.58239 130.273 9.58239C126.302 9.58239 123.752 12.2926 123.752 16.3494C123.752 20.5426 126.268 23.0909 130.401 23.0909ZM127.877 14.8835C127.937 13.5795 128.972 12.5909 130.358 12.5909C131.736 12.5909 132.729 13.5455 132.746 14.8835H127.877Z" fill="#03045E"/>
<path d="M138.778 27.7528H142.963V20.7216H143.048C143.579 21.9318 144.76 23.0313 146.745 23.0313C149.655 23.0313 152 20.7642 152 16.3068C152 11.6875 149.518 9.58239 146.771 9.58239C144.691 9.58239 143.553 10.7926 143.048 11.9943H142.92V9.75284H138.778V27.7528ZM142.877 16.2983C142.877 14.1591 143.767 12.8381 145.299 12.8381C146.848 12.8381 147.704 14.1932 147.704 16.2983C147.704 18.4119 146.848 19.7841 145.299 19.7841C143.767 19.7841 142.877 18.4205 142.877 16.2983Z" fill="#03045E"/>
</svg>
