<svg width="30" height="30" viewBox="0 0 30 30" fill="none" xmlns="http://www.w3.org/2000/svg">
<g clip-path="url(#clip0_606_697)">
<path d="M6.5925 13.125C7.89044 13.125 9.15923 13.5099 10.2384 14.231C11.3176 14.9521 12.1588 15.977 12.6555 17.1761C13.1522 18.3753 13.2821 19.6948 13.0289 20.9678C12.7757 22.2408 12.1507 23.4101 11.2329 24.3279C10.3151 25.2457 9.14578 25.8707 7.87278 26.1239C6.59978 26.3771 5.28028 26.2472 4.08114 25.7505C2.882 25.2538 1.85708 24.4126 1.13598 23.3334C0.414884 22.2542 0.03 20.9854 0.03 19.6875L0 18.75C0 15.269 1.38281 11.9306 3.84422 9.46922C6.30564 7.00781 9.64403 5.625 13.125 5.625V9.375C11.8933 9.37169 10.6732 9.61258 9.53519 10.0837C8.39718 10.5549 7.36387 11.247 6.495 12.12C6.1573 12.4571 5.84578 12.8194 5.56313 13.2037C5.89875 13.1512 6.24188 13.1231 6.59063 13.1231L6.5925 13.125ZM23.4675 13.125C24.7654 13.125 26.0342 13.5099 27.1134 14.231C28.1926 14.9521 29.0338 15.977 29.5305 17.1761C30.0272 18.3753 30.1571 19.6948 29.9039 20.9678C29.6507 22.2408 29.0257 23.4101 28.1079 24.3279C27.1901 25.2457 26.0208 25.8707 24.7478 26.1239C23.4748 26.3771 22.1553 26.2472 20.9561 25.7505C19.757 25.2538 18.7321 24.4126 18.011 23.3334C17.2899 22.2542 16.905 20.9854 16.905 19.6875L16.875 18.75C16.875 15.269 18.2578 11.9306 20.7192 9.46922C23.1806 7.00781 26.519 5.625 30 5.625V9.375C28.7683 9.37169 27.5482 9.61258 26.4102 10.0837C25.2722 10.5549 24.2389 11.247 23.37 12.12C23.0323 12.4571 22.7208 12.8194 22.4381 13.2037C22.7738 13.1512 23.1169 13.1231 23.4675 13.1231V13.125Z" fill="#0096C7"/>
</g>
<defs>
<clipPath id="clip0_606_697">
<rect width="30" height="30" fill="white"/>
</clipPath>
</defs>
</svg>
